<svg width="25" height="24" viewBox="0 0 25 24" fill="none" xmlns="http://www.w3.org/2000/svg">
  <g clip-path="url(#clip0_179_790)">
    <path d="M15.5 21C20.4706 21 24.5 16.9706 24.5 12C24.5 7.02944 20.4706 3 15.5 3C10.5294 3 6.5 7.02944 6.5 12C6.5 16.9706 10.5294 21 15.5 21Z" fill="#F1F3F4"></path>
    <path d="M15.5 21C20.4706 21 24.5 16.9706 24.5 12C24.5 7.02944 20.4706 3 15.5 3C10.5294 3 6.5 7.02944 6.5 12C6.5 16.9706 10.5294 21 15.5 21Z" fill="url(#paint0_linear_179_790)"></path>
    <path fill-rule="evenodd" clip-rule="evenodd" d="M15.5 21C15.5 16.8578 12.1423 13.5 8 13.5C3.85775 13.5 0.5 16.8578 0.5 21C0.51125 20.9827 15.5037 20.9887 15.5 21Z" fill="#F1F3F4"></path>
  </g>
  <defs>
    <linearGradient id="paint0_linear_179_790" x1="67.502" y1="64.002" x2="1806.5" y2="1803" gradientUnits="userSpaceOnUse">
      <stop stop-color="#F1F3F4"></stop>
      <stop offset="1" stop-color="#DADCE0"></stop>
    </linearGradient>
    <clipPath id="clip0_179_790">
      <rect width="24" height="24" fill="white" transform="translate(0.5)"></rect>
    </clipPath>
  </defs>
</svg>