<svg width="16" height="16" viewBox="0 0 16 16" fill="none" xmlns="http://www.w3.org/2000/svg">
  <path d="M4.33333 13C3.412 13 2.62611 12.6799 1.97567 12.0397C1.32522 11.3996 1 10.6188 1 9.6975C1 8.88206 1.26111 8.15683 1.78333 7.52183C2.30556 6.88672 2.97178 6.51106 3.782 6.39483C3.99567 5.39828 4.49678 4.58333 5.28533 3.95C6.07378 3.31667 6.97867 3 8 3C9.206 3 10.2297 3.42072 11.0712 4.26217C11.9126 5.10361 12.3333 6.12733 12.3333 7.33333V7.66667H12.5385C13.2411 7.72133 13.8269 8.00383 14.2962 8.51417C14.7654 9.02439 15 9.63078 15 10.3333C15 11.0769 14.7414 11.7072 14.2243 12.2243C13.7072 12.7414 13.0769 13 12.3333 13H4.33333ZM4.33333 12H12.3333C12.8 12 13.1944 11.8389 13.5167 11.5167C13.8389 11.1944 14 10.8 14 10.3333C14 9.86667 13.8389 9.47222 13.5167 9.15C13.1944 8.82778 12.8 8.66667 12.3333 8.66667H11.3333V7.33333C11.3333 6.41111 11.0083 5.625 10.3583 4.975C9.70833 4.325 8.92222 4 8 4C7.07778 4 6.29167 4.325 5.64167 4.975C4.99167 5.625 4.66667 6.41111 4.66667 7.33333H4.33333C3.68889 7.33333 3.13889 7.56111 2.68333 8.01667C2.22778 8.47222 2 9.02222 2 9.66667C2 10.3111 2.22778 10.8611 2.68333 11.3167C3.13889 11.7722 3.68889 12 4.33333 12Z" fill="#FFFFFF"></path>
  <path d="M4.33333 13C3.412 13 2.62611 12.6799 1.97567 12.0397C1.32522 11.3996 1 10.6188 1 9.6975C1 8.88206 1.26111 8.15683 1.78333 7.52183C2.30556 6.88672 2.97178 6.51106 3.782 6.39483C3.99567 5.39828 4.49678 4.58333 5.28533 3.95C6.07378 3.31667 6.97867 3 8 3C9.206 3 10.2297 3.42072 11.0712 4.26217C11.9126 5.10361 12.3333 6.12733 12.3333 7.33333V7.66667H12.5385C13.2411 7.72133 13.8269 8.00383 14.2962 8.51417C14.7654 9.02439 15 9.63078 15 10.3333C15 11.0769 14.7414 11.7072 14.2243 12.2243C13.7072 12.7414 13.0769 13 12.3333 13H4.33333ZM4.33333 12H12.3333C12.8 12 13.1944 11.8389 13.5167 11.5167C13.8389 11.1944 14 10.8 14 10.3333C14 9.86667 13.8389 9.47222 13.5167 9.15C13.1944 8.82778 12.8 8.66667 12.3333 8.66667H11.3333V7.33333C11.3333 6.41111 11.0083 5.625 10.3583 4.975C9.70833 4.325 8.92222 4 8 4C7.07778 4 6.29167 4.325 5.64167 4.975C4.99167 5.625 4.66667 6.41111 4.66667 7.33333H4.33333C3.68889 7.33333 3.13889 7.56111 2.68333 8.01667C2.22778 8.47222 2 9.02222 2 9.66667C2 10.3111 2.22778 10.8611 2.68333 11.3167C3.13889 11.7722 3.68889 12 4.33333 12Z" fill="#FFFFFF" fill-opacity="0.04"></path>
</svg>