<svg xmlns="http://www.w3.org/2000/svg" width="25" height="24" viewBox="0 0 25 24" fill="none">
  <path d="M13.5965 20.294C13.5232 20.357 13.4452 20.4055 13.3625 20.4395C13.2798 20.4733 13.1894 20.4902 13.0912 20.4902C12.9932 20.4902 12.8936 20.4707 12.7923 20.4317C12.6911 20.3926 12.6033 20.3358 12.5287 20.2615C11.9224 19.5987 11.4616 18.9047 11.1463 18.1797C10.8308 17.4547 10.673 16.6877 10.673 15.8785C10.673 15.2915 10.7582 14.674 10.9288 14.026C11.0994 13.3778 11.4001 12.5377 11.8308 11.5057C12.1949 10.5877 12.452 9.87216 12.602 9.35899C12.752 8.84583 12.827 8.37049 12.827 7.93299C12.827 7.36099 12.702 6.82116 12.452 6.31349C12.202 5.80583 11.8103 5.29874 11.277 4.79224C11.2037 4.71658 11.1456 4.62833 11.1027 4.52749C11.0599 4.42666 11.0385 4.32583 11.0385 4.22499C11.0385 4.13016 11.0555 4.04141 11.0895 3.95874C11.1235 3.87608 11.1719 3.79749 11.2348 3.72299C11.3103 3.64866 11.3958 3.59133 11.4915 3.55099C11.587 3.51066 11.6857 3.49049 11.7875 3.49049C11.8895 3.49049 11.9831 3.51024 12.0683 3.54974C12.1536 3.58924 12.2328 3.64191 12.3058 3.70774C12.9558 4.32058 13.4551 4.97958 13.8038 5.68474C14.1526 6.38974 14.327 7.13816 14.327 7.92999C14.327 8.48433 14.2445 9.06633 14.0795 9.67599C13.9145 10.2858 13.6277 11.0817 13.2192 12.0635C12.8154 13.0313 12.5401 13.7852 12.3933 14.325C12.2464 14.8647 12.173 15.3762 12.173 15.8595C12.173 16.4542 12.2923 17.0275 12.5308 17.5795C12.7693 18.1317 13.1385 18.6795 13.6385 19.223C13.7013 19.2985 13.7517 19.3802 13.7895 19.4682C13.8273 19.5562 13.8462 19.6505 13.8462 19.751C13.8462 19.8517 13.826 19.9484 13.7855 20.0412C13.7452 20.1342 13.6822 20.2185 13.5965 20.294ZM18.2697 20.2922C18.1962 20.3564 18.1183 20.4071 18.036 20.4442C17.9535 20.4814 17.8615 20.5 17.76 20.5C17.6585 20.5 17.5586 20.4786 17.4602 20.4357C17.3617 20.3929 17.2757 20.3348 17.202 20.2615C16.5955 19.6052 16.133 18.9154 15.8145 18.1922C15.4958 17.4692 15.3365 16.7055 15.3365 15.901C15.3365 15.3175 15.4233 14.6945 15.597 14.032C15.7708 13.3697 16.0731 12.5276 16.5038 11.5057C16.8743 10.5814 17.1329 9.86816 17.2797 9.36599C17.4266 8.86366 17.5 8.39491 17.5 7.95974C17.5 7.38074 17.375 6.83149 17.125 6.31199C16.875 5.79266 16.4833 5.28608 15.95 4.79224C15.8757 4.71608 15.8199 4.63049 15.7828 4.53549C15.7456 4.44033 15.727 4.34199 15.727 4.24049C15.727 4.14366 15.7414 4.05599 15.7703 3.97749C15.7991 3.89899 15.8451 3.82183 15.9083 3.74599C15.9839 3.67033 16.0723 3.61041 16.1735 3.56624C16.2745 3.52208 16.3748 3.49999 16.4745 3.49999C16.5742 3.49999 16.6644 3.51891 16.7452 3.55674C16.8263 3.59441 16.9041 3.64474 16.9788 3.70774C17.6288 4.32058 18.1282 4.97958 18.477 5.68474C18.8257 6.38974 19 7.13816 19 7.92999C19 8.48433 18.9173 9.06474 18.752 9.67124C18.5865 10.2776 18.2968 11.0833 17.8828 12.0885C17.4789 13.0628 17.2036 13.8167 17.0568 14.35C16.9099 14.8833 16.8365 15.3862 16.8365 15.8585C16.8365 16.449 16.9615 17.025 17.2115 17.5865C17.4615 18.148 17.8365 18.7018 18.3365 19.248C18.3973 19.3223 18.443 19.4029 18.4735 19.4897C18.504 19.5764 18.5193 19.6632 18.5193 19.75C18.5193 19.8492 18.499 19.9483 18.4585 20.0475C18.4182 20.1465 18.3552 20.2281 18.2697 20.2922ZM8.9235 20.2922C8.85017 20.3564 8.77225 20.4071 8.68975 20.4442C8.60725 20.4814 8.51525 20.5 8.41375 20.5C8.31225 20.5 8.21233 20.4786 8.114 20.4357C8.01567 20.3929 7.92958 20.3348 7.85575 20.2615C7.24942 19.6052 6.7885 18.9154 6.473 18.1922C6.15767 17.4692 6 16.7055 6 15.901C6 15.3175 6.08525 14.6945 6.25575 14.032C6.42625 13.3697 6.72692 12.5276 7.15775 11.5057C7.52825 10.5814 7.78692 9.86816 7.93375 9.36599C8.08058 8.86366 8.154 8.39491 8.154 7.95974C8.154 7.38074 8.029 6.83149 7.779 6.31199C7.529 5.79266 7.13733 5.28608 6.604 4.79224C6.51833 4.71608 6.45717 4.63041 6.4205 4.53524C6.38383 4.43991 6.3655 4.34266 6.3655 4.24349C6.3655 4.14449 6.3825 4.05158 6.4165 3.96474C6.45033 3.87808 6.49875 3.79749 6.56175 3.72299C6.63725 3.64866 6.72308 3.59133 6.81925 3.55099C6.91542 3.51066 7.0125 3.49049 7.1105 3.49049C7.20867 3.49049 7.3015 3.51024 7.389 3.54974C7.4765 3.58924 7.55775 3.64191 7.63275 3.70774C8.28275 4.32058 8.78208 4.97741 9.13075 5.67824C9.47942 6.37924 9.65375 7.13141 9.65375 7.93474C9.65375 8.47958 9.57525 9.05516 9.41825 9.66149C9.26125 10.268 8.97583 11.07 8.562 12.0675C8.16433 13.0327 7.8905 13.7852 7.7405 14.325C7.5905 14.8647 7.5155 15.3762 7.5155 15.8595C7.5155 16.4557 7.63633 17.0351 7.878 17.5977C8.11967 18.1604 8.4905 18.7105 8.9905 19.248C9.05133 19.3223 9.097 19.4029 9.1275 19.4897C9.15783 19.5764 9.173 19.6632 9.173 19.75C9.173 19.8492 9.15283 19.9483 9.1125 20.0475C9.07217 20.1465 9.00917 20.2281 8.9235 20.2922Z" fill="#FFFFFF"></path>
</svg>