<svg width="24" height="24" viewBox="0 0 24 24" fill="none" xmlns="http://www.w3.org/2000/svg">
  <path d="M13.8828 21.7558C13.6967 21.8571 13.5067 21.8731 13.3125 21.8038C13.1183 21.7346 12.9706 21.6071 12.8693 21.4212L11.273 18.2288C11.1718 18.0429 11.1558 17.8529 11.225 17.6587C11.2942 17.4644 11.4218 17.3167 11.6077 17.2155C11.7936 17.1142 11.9853 17.0998 12.1827 17.1723C12.3801 17.2446 12.5294 17.3737 12.6308 17.5595L14.227 20.7423C14.3282 20.9283 14.3426 21.1183 14.2703 21.3125C14.1978 21.5067 14.0686 21.6544 13.8828 21.7558ZM19.8923 21.7558C19.7064 21.8571 19.5164 21.8731 19.3223 21.8038C19.1279 21.7346 18.9801 21.6071 18.8788 21.4212L17.2828 18.2288C17.1814 18.0429 17.1654 17.8529 17.2348 17.6587C17.3039 17.4644 17.4314 17.3167 17.6173 17.2155C17.8033 17.1142 17.9949 17.0998 18.1923 17.1723C18.3897 17.2446 18.5391 17.3737 18.6402 17.5595L20.2365 20.7423C20.3378 20.9283 20.3523 21.1183 20.2798 21.3125C20.2074 21.5067 20.0783 21.6544 19.8923 21.7558ZM7.88275 21.7558C7.69675 21.8571 7.50508 21.8731 7.30775 21.8038C7.11025 21.7346 6.96092 21.6071 6.85975 21.4212L5.2635 18.2288C5.16217 18.0429 5.14775 17.8529 5.22025 17.6587C5.29258 17.4644 5.42175 17.3167 5.60775 17.2155C5.79358 17.1142 5.98358 17.0998 6.17775 17.1723C6.37208 17.2446 6.51992 17.3737 6.62125 17.5595L8.21725 20.7423C8.31858 20.9283 8.33458 21.1183 8.26525 21.3125C8.19608 21.5067 8.06858 21.6544 7.88275 21.7558ZM7.5 15.75C6.0475 15.75 4.80933 15.2382 3.7855 14.2145C2.76183 13.1907 2.25 11.9525 2.25 10.5C2.25 9.1615 2.69708 7.99808 3.59125 7.00975C4.48558 6.02125 5.59808 5.44492 6.92875 5.28075C7.44292 4.33725 8.1465 3.59625 9.0395 3.05775C9.93233 2.51925 10.9192 2.25 12 2.25C13.468 2.25 14.7369 2.72758 15.8068 3.68275C16.8766 4.63792 17.5122 5.82892 17.7135 7.25575C18.902 7.34292 19.8718 7.79392 20.623 8.60875C21.3743 9.42342 21.75 10.3872 21.75 11.5C21.75 12.6795 21.3365 13.6827 20.5095 14.5095C19.6827 15.3365 18.6795 15.75 17.5 15.75H7.5ZM7.5 14.25H17.5C18.2642 14.25 18.9135 13.9827 19.448 13.448C19.9827 12.9135 20.25 12.2642 20.25 11.5C20.25 10.7358 19.9827 10.0865 19.448 9.552C18.9135 9.01733 18.2642 8.75 17.5 8.75H16.25V8C16.25 6.8295 15.8343 5.8285 15.003 4.997C14.1715 4.16567 13.1705 3.75 12 3.75C11.1487 3.75 10.373 3.98108 9.673 4.44325C8.973 4.90542 8.44675 5.52558 8.09425 6.30375L7.9115 6.75H7.45C6.4295 6.78333 5.55767 7.1615 4.8345 7.8845C4.1115 8.60767 3.75 9.4795 3.75 10.5C3.75 11.5372 4.11567 12.4215 4.847 13.153C5.5785 13.8843 6.46283 14.25 7.5 14.25Z" fill="#FFFFFF"></path>
</svg>