<svg width="24" height="24" viewBox="0 0 24 24" fill="none" xmlns="http://www.w3.org/2000/svg">
  <g clip-path="url(#clip0_125_4355)">
    <path d="M15 18C19.9706 18 24 13.9706 24 9C24 4.02944 19.9706 0 15 0C10.0294 0 6 4.02944 6 9C6 13.9706 10.0294 18 15 18Z" fill="#F1F3F4"></path>
    <path d="M15 18C19.9706 18 24 13.9706 24 9C24 4.02944 19.9706 0 15 0C10.0294 0 6 4.02944 6 9C6 13.9706 10.0294 18 15 18Z" fill="url(#paint0_linear_125_4355)"></path>
    <path fill-rule="evenodd" clip-rule="evenodd" d="M15 18C15 13.8578 11.6423 10.5 7.5 10.5C3.35775 10.5 0 13.8578 0 18C0.01125 17.9827 15.0037 17.9887 15 18Z" fill="url(#paint1_linear_125_4355)"></path>
    <path fill-rule="evenodd" clip-rule="evenodd" d="M13.299 20.799L14.625 19.473L15.951 20.799C16.2132 21.0612 16.3917 21.3953 16.464 21.759C16.5363 22.1227 16.4992 22.4997 16.3572 22.8423C16.2153 23.1849 15.975 23.4777 15.6666 23.6837C15.3583 23.8897 14.9958 23.9997 14.625 23.9997C14.2542 23.9997 13.8917 23.8897 13.5834 23.6837C13.275 23.4777 13.0347 23.1849 12.8928 22.8423C12.7508 22.4997 12.7137 22.1227 12.786 21.759C12.8583 21.3953 13.0368 21.0612 13.299 20.799ZM19.299 20.799L20.625 19.473L21.951 20.799C22.2132 21.0612 22.3917 21.3953 22.464 21.759C22.5363 22.1227 22.4992 22.4997 22.3572 22.8423C22.2153 23.1849 21.975 23.4777 21.6666 23.6837C21.3583 23.8897 20.9958 23.9997 20.625 23.9997C20.2542 23.9997 19.8917 23.8897 19.5834 23.6837C19.275 23.4777 19.0347 23.1849 18.8928 22.8423C18.7508 22.4997 18.7137 22.1227 18.786 21.759C18.8583 21.3953 19.0368 21.0612 19.299 20.799ZM13.326 8.076L14.652 6.75L15.9773 8.076C16.2395 8.3382 16.4182 8.67229 16.4906 9.03602C16.5629 9.39975 16.5259 9.77678 16.384 10.1194C16.2421 10.4621 16.0017 10.7549 15.6934 10.961C15.385 11.167 15.0225 11.277 14.6516 11.277C14.2808 11.277 13.9182 11.167 13.6099 10.961C13.3015 10.7549 13.0612 10.4621 12.9193 10.1194C12.7774 9.77678 12.7403 9.39975 12.8127 9.03602C12.8851 8.67229 13.0637 8.3382 13.326 8.076ZM19.326 8.076L20.652 6.75L21.9773 8.076C22.2395 8.3382 22.4182 8.67229 22.4906 9.03602C22.563 9.39975 22.5259 9.77678 22.384 10.1194C22.2421 10.4621 22.0017 10.7549 21.6934 10.961C21.385 11.167 21.0225 11.277 20.6516 11.277C20.2808 11.277 19.9182 11.167 19.6099 10.961C19.3015 10.7549 19.0612 10.4621 18.9193 10.1194C18.7774 9.77678 18.7403 9.39975 18.8127 9.03602C18.8851 8.67229 19.0637 8.3382 19.326 8.076ZM13.326 14.826L14.652 13.5L15.9773 14.826C16.2395 15.0882 16.4182 15.4223 16.4906 15.786C16.5629 16.1498 16.5259 16.5268 16.384 16.8694C16.2421 17.2121 16.0017 17.5049 15.6934 17.711C15.385 17.917 15.0225 18.027 14.6516 18.027C14.2808 18.027 13.9182 17.917 13.6099 17.711C13.3015 17.5049 13.0612 17.2121 12.9193 16.8694C12.7774 16.5268 12.7403 16.1498 12.8127 15.786C12.8851 15.4223 13.0637 15.0882 13.326 14.826ZM19.326 14.826L20.652 13.5L21.9773 14.826C22.2395 15.0882 22.4182 15.4223 22.4906 15.786C22.563 16.1498 22.5259 16.5268 22.384 16.8694C22.2421 17.2121 22.0017 17.5049 21.6934 17.711C21.385 17.917 21.0225 18.027 20.6516 18.027C20.2808 18.027 19.9182 17.917 19.6099 17.711C19.3015 17.5049 19.0612 17.2121 18.9193 16.8694C18.7774 16.5268 18.7403 16.1498 18.8127 15.786C18.8851 15.4223 19.0637 15.0882 19.326 14.826Z" fill="#4285F4"></path>
  </g>
  <defs>
    <linearGradient id="paint0_linear_125_4355" x1="6" y1="0" x2="1774.99" y2="1768.99" gradientUnits="userSpaceOnUse">
      <stop stop-color="#F1F3F4"></stop>
      <stop offset="1" stop-color="#DADCE0"></stop>
    </linearGradient>
    <linearGradient id="paint1_linear_125_4355" x1="1500" y1="760.5" x2="750" y2="760.5" gradientUnits="userSpaceOnUse">
      <stop stop-color="white"></stop>
      <stop offset="1" stop-color="#F1F3F4"></stop>
    </linearGradient>
    <clipPath id="clip0_125_4355">
      <rect width="24" height="24" fill="white"></rect>
    </clipPath>
  </defs>
</svg>