<svg xmlns="http://www.w3.org/2000/svg" width="24" height="24" viewBox="0 0 24 24" fill="none">
  <path fill-rule="evenodd" clip-rule="evenodd" d="M8.48033 5.691L12.0001 2.172L15.5198 5.69175C16.2157 6.38792 16.6895 7.27479 16.8813 8.24022C17.0731 9.20564 16.9744 10.2063 16.5975 11.1156C16.2207 12.0249 15.5827 12.802 14.7642 13.3488C13.9457 13.8955 12.9835 14.1873 11.9992 14.1872C11.0149 14.1871 10.0527 13.8951 9.23433 13.3482C8.41596 12.8013 7.77813 12.024 7.40149 11.1146C7.02485 10.2052 6.92631 9.20456 7.11834 8.23918C7.31037 7.27379 7.78435 6.38702 8.48033 5.691Z" fill="#FFFFFF"></path>
  <path d="M22.8765 17.2417H1.12354C1.02408 17.2417 0.928696 17.2022 0.85837 17.1319C0.788044 17.0616 0.748535 16.9662 0.748535 16.8667C0.748535 16.7673 0.788044 16.6719 0.85837 16.6016C0.928696 16.5313 1.02408 16.4917 1.12354 16.4917H22.8773C22.9767 16.4918 23.0721 16.5314 23.1423 16.6018C23.2126 16.6722 23.252 16.7677 23.2519 16.8671C23.2518 16.9666 23.2122 17.0619 23.1418 17.1322C23.0714 17.2024 22.976 17.2418 22.8765 17.2417ZM22.8765 20.2537H1.12354C1.02408 20.2537 0.928696 20.2142 0.85837 20.1439C0.788044 20.0736 0.748535 19.9782 0.748535 19.8787C0.748535 19.7793 0.788044 19.6839 0.85837 19.6136C0.928696 19.5433 1.02408 19.5037 1.12354 19.5037H22.8773C22.9265 19.5038 22.9753 19.5135 23.0208 19.5324C23.0662 19.5513 23.1076 19.579 23.1423 19.6138C23.1771 19.6487 23.2047 19.6901 23.2235 19.7356C23.2423 19.7811 23.252 19.8299 23.2519 19.8791C23.2519 19.9284 23.2421 19.9771 23.2232 20.0226C23.2043 20.0681 23.1767 20.1094 23.1418 20.1442C23.107 20.179 23.0656 20.2065 23.0201 20.2253C22.9746 20.2441 22.9258 20.2538 22.8765 20.2537ZM22.8765 23.265H1.12354C1.02408 23.265 0.928696 23.2255 0.85837 23.1552C0.788044 23.0848 0.748535 22.9895 0.748535 22.89C0.748535 22.7905 0.788044 22.6952 0.85837 22.6248C0.928696 22.5545 1.02408 22.515 1.12354 22.515H22.8773C22.9265 22.515 22.9753 22.5248 23.0208 22.5437C23.0662 22.5626 23.1076 22.5902 23.1423 22.6251C23.1771 22.66 23.2047 22.7013 23.2235 22.7468C23.2423 22.7924 23.252 22.8411 23.2519 22.8904C23.2519 22.9396 23.2421 22.9884 23.2232 23.0338C23.2043 23.0793 23.1767 23.1206 23.1418 23.1554C23.107 23.1902 23.0656 23.2178 23.0201 23.2366C22.9746 23.2554 22.9258 23.265 22.8765 23.265Z" fill="#FFFFFF"></path>
</svg>