<svg width="16" height="16" viewBox="0 0 16 16" fill="none" xmlns="http://www.w3.org/2000/svg">
    <path d="M12.2335 6.73335L11.3002 5.76669L12.7335 4.36669L13.6668 5.30002L12.2335 6.73335ZM1.3335 13.3334V12H14.6668V13.3334H1.3335ZM7.3335 4.66669V2.66669H8.66683V4.66669H7.3335ZM3.76683 6.70002L2.36683 5.26669L3.30016 4.33335L4.7335 5.76669L3.76683 6.70002ZM3.3335 10.6667C3.3335 9.36669 3.78627 8.26391 4.69183 7.35835C5.59738 6.4528 6.70016 6.00002 8.00016 6.00002C9.30016 6.00002 10.4029 6.4528 11.3085 7.35835C12.2141 8.26391 12.6668 9.36669 12.6668 10.6667H3.3335Z" fill="#FBBC04"></path>
  </svg>