<svg width="16" height="16" viewBox="0 0 16 16" fill="none" xmlns="http://www.w3.org/2000/svg">
  <path d="M5.30133 14.9487L5.85 13.3973H4.686L5.45517 11.2435H6.86533L6.2065 12.782H7.48083L5.7885 14.9487H5.30133ZM9.45517 14.3333L9.88967 13.0897H8.68583L9.34483 11.2435H10.7552L10.223 12.4743H11.4807L9.94233 14.3333H9.45517ZM5 10.5C4.03167 10.5 3.20622 10.1588 2.52367 9.47633C1.84122 8.79378 1.5 7.96833 1.5 7C1.5 6.10767 1.79806 5.33206 2.39417 4.67317C2.99039 4.01417 3.73206 3.62994 4.61917 3.5205C4.96194 2.8915 5.431 2.3975 6.02633 2.0385C6.62156 1.6795 7.27944 1.5 8 1.5C8.97867 1.5 9.82461 1.81839 10.5378 2.45517C11.2511 3.09194 11.6748 3.88594 11.809 4.83717C12.6013 4.89528 13.2479 5.19594 13.7487 5.73917C14.2496 6.28228 14.5 6.92478 14.5 7.66667C14.5 8.453 14.2243 9.12178 13.673 9.673C13.1218 10.2243 12.453 10.5 11.6667 10.5H5ZM5 9.5H11.6667C12.1761 9.5 12.609 9.32178 12.9653 8.96533C13.3218 8.609 13.5 8.17611 13.5 7.66667C13.5 7.15722 13.3218 6.72433 12.9653 6.368C12.609 6.01156 12.1761 5.83333 11.6667 5.83333H10.8333V5.33333C10.8333 4.553 10.5562 3.88567 10.002 3.33133C9.44767 2.77711 8.78033 2.5 8 2.5C7.43244 2.5 6.91533 2.65406 6.44867 2.96217C5.982 3.27028 5.63117 3.68372 5.39617 4.2025L5.27433 4.5H4.96667C4.28633 4.52222 3.70511 4.77433 3.223 5.25633C2.741 5.73844 2.5 6.31967 2.5 7C2.5 7.69144 2.74378 8.281 3.23133 8.76867C3.719 9.25622 4.30856 9.5 5 9.5Z" fill="#FFFFFF"></path>
  <path d="M5.30133 14.9487L5.85 13.3973H4.686L5.45517 11.2435H6.86533L6.2065 12.782H7.48083L5.7885 14.9487H5.30133ZM9.45517 14.3333L9.88967 13.0897H8.68583L9.34483 11.2435H10.7552L10.223 12.4743H11.4807L9.94233 14.3333H9.45517ZM5 10.5C4.03167 10.5 3.20622 10.1588 2.52367 9.47633C1.84122 8.79378 1.5 7.96833 1.5 7C1.5 6.10767 1.79806 5.33206 2.39417 4.67317C2.99039 4.01417 3.73206 3.62994 4.61917 3.5205C4.96194 2.8915 5.431 2.3975 6.02633 2.0385C6.62156 1.6795 7.27944 1.5 8 1.5C8.97867 1.5 9.82461 1.81839 10.5378 2.45517C11.2511 3.09194 11.6748 3.88594 11.809 4.83717C12.6013 4.89528 13.2479 5.19594 13.7487 5.73917C14.2496 6.28228 14.5 6.92478 14.5 7.66667C14.5 8.453 14.2243 9.12178 13.673 9.673C13.1218 10.2243 12.453 10.5 11.6667 10.5H5ZM5 9.5H11.6667C12.1761 9.5 12.609 9.32178 12.9653 8.96533C13.3218 8.609 13.5 8.17611 13.5 7.66667C13.5 7.15722 13.3218 6.72433 12.9653 6.368C12.609 6.01156 12.1761 5.83333 11.6667 5.83333H10.8333V5.33333C10.8333 4.553 10.5562 3.88567 10.002 3.33133C9.44767 2.77711 8.78033 2.5 8 2.5C7.43244 2.5 6.91533 2.65406 6.44867 2.96217C5.982 3.27028 5.63117 3.68372 5.39617 4.2025L5.27433 4.5H4.96667C4.28633 4.52222 3.70511 4.77433 3.223 5.25633C2.741 5.73844 2.5 6.31967 2.5 7C2.5 7.69144 2.74378 8.281 3.23133 8.76867C3.719 9.25622 4.30856 9.5 5 9.5Z" fill="currentColor" fill-opacity="0.04"></path>
</svg>