<svg width="25" height="24" viewBox="0 0 25 24" fill="none" xmlns="http://www.w3.org/2000/svg">
    <path d="M9.7691 17.8785C14.4878 17.8785 18.3131 14.0532 18.3131 9.33453C18.3131 4.61581 14.4878 0.790527 9.7691 0.790527C5.05038 0.790527 1.2251 4.61581 1.2251 9.33453C1.2251 14.0532 5.05038 17.8785 9.7691 17.8785Z" fill="url(#paint0_linear_376_9877)"></path>
    <path d="M1.3222 22.683C1.2956 22.7251 1.27764 22.772 1.26937 22.8211C1.2611 22.8702 1.26269 22.9204 1.27404 22.9689C1.28539 23.0174 1.30627 23.0631 1.33548 23.1034C1.36468 23.1437 1.40162 23.1778 1.44413 23.2037C1.48665 23.2296 1.53389 23.2467 1.58311 23.2542C1.63233 23.2616 1.68254 23.2592 1.73081 23.247C1.77907 23.2349 1.82444 23.2132 1.86425 23.1833C1.90406 23.1534 1.93753 23.1159 1.9627 23.073L4.9627 18.15C4.74295 18.03 4.53145 17.8965 4.3222 17.7607L1.3222 22.683Z" fill="#EE675C"></path>
    <path d="M4.29436 22.683C4.26776 22.7251 4.24981 22.772 4.24154 22.8211C4.23327 22.8702 4.23486 22.9204 4.24621 22.9689C4.25756 23.0173 4.27844 23.0631 4.30764 23.1034C4.33685 23.1437 4.37378 23.1778 4.4163 23.2037C4.45882 23.2296 4.50606 23.2467 4.55528 23.2542C4.6045 23.2616 4.65471 23.2592 4.70297 23.247C4.75124 23.2348 4.7966 23.2132 4.83642 23.1833C4.87623 23.1534 4.9097 23.1159 4.93486 23.073L7.37086 19.0762C7.11846 19.0158 6.86852 18.9455 6.62161 18.8655L4.29436 22.683Z" fill="#FA903E"></path>
    <path d="M9.29577 19.3545L7.26702 22.683C7.24042 22.7251 7.22246 22.772 7.21419 22.8211C7.20593 22.8702 7.20751 22.9204 7.21886 22.9689C7.23021 23.0174 7.2511 23.0631 7.2803 23.1034C7.3095 23.1437 7.34644 23.1778 7.38896 23.2037C7.43147 23.2296 7.47872 23.2467 7.52794 23.2542C7.57715 23.2616 7.62736 23.2592 7.67563 23.247C7.7239 23.2349 7.76926 23.2132 7.80907 23.1833C7.84889 23.1534 7.88235 23.1159 7.90752 23.073L10.1718 19.3582C10.0375 19.3635 9.90552 19.3785 9.76977 19.3785C9.60927 19.3785 9.45327 19.362 9.29577 19.3545Z" fill="#F9CD41"></path>
    <path d="M10.2387 22.683C10.2121 22.7251 10.1941 22.772 10.1859 22.8211C10.1776 22.8702 10.1792 22.9204 10.1905 22.9689C10.2019 23.0174 10.2228 23.0631 10.252 23.1034C10.2812 23.1437 10.3181 23.1778 10.3606 23.2037C10.4032 23.2296 10.4504 23.2467 10.4996 23.2542C10.5488 23.2616 10.599 23.2592 10.6473 23.247C10.6956 23.2349 10.7409 23.2132 10.7808 23.1833C10.8206 23.1534 10.854 23.1159 10.8792 23.073L13.1817 19.3545H12.395L10.2387 22.683Z" fill="#5BB974"></path>
    <path d="M18.4616 17.8785C21.3777 17.8785 23.7416 15.5145 23.7416 12.5985C23.7416 9.68242 21.3777 7.31848 18.4616 7.31848C15.5456 7.31848 13.1816 9.68242 13.1816 12.5985C13.1816 15.5145 15.5456 17.8785 18.4616 17.8785Z" fill="url(#paint1_linear_376_9877)"></path>
    <path fill-rule="evenodd" clip-rule="evenodd" d="M18.6633 17.8785C18.6633 16.7115 18.1997 15.5923 17.3745 14.7671C16.5493 13.9419 15.4301 13.4783 14.263 13.4783C13.096 13.4783 11.9768 13.9419 11.1516 14.7671C10.3264 15.5923 9.86279 16.7115 9.86279 17.8785C9.86954 17.8688 18.6655 17.8718 18.6633 17.8785Z" fill="url(#paint2_linear_376_9877)"></path>
    <defs>
      <linearGradient id="paint0_linear_376_9877" x1="1.21985" y1="0.801027" x2="18.3138" y2="17.874" gradientUnits="userSpaceOnUse">
        <stop stop-color="#F5D370"></stop>
        <stop offset="1" stop-color="#F1BC42"></stop>
      </linearGradient>
      <linearGradient id="paint1_linear_376_9877" x1="13.1779" y1="7.31998" x2="23.5639" y2="17.706" gradientUnits="userSpaceOnUse">
        <stop stop-color="#F0F2F3"></stop>
        <stop offset="1" stop-color="#D9DBDF"></stop>
      </linearGradient>
      <linearGradient id="paint2_linear_376_9877" x1="18.6648" y1="15.6825" x2="14.2698" y2="15.6825" gradientUnits="userSpaceOnUse">
        <stop stop-color="white"></stop>
        <stop offset="1" stop-color="#F0F2F3"></stop>
      </linearGradient>
    </defs>
  </svg>