<svg width="24" height="24" viewBox="0 0 24 24" fill="none" xmlns="http://www.w3.org/2000/svg">
    <g clip-path="url(#clip0_179_599)">
      <path d="M9.84375 12C13.1057 12 15.75 9.31371 15.75 6C15.75 2.68629 13.1057 0 9.84375 0C6.58182 0 3.9375 2.68629 3.9375 6C3.9375 9.31371 6.58182 12 9.84375 12Z" fill="#F1F3F4"></path>
      <path d="M9.75 12C13.0637 12 15.75 9.31371 15.75 6C15.75 2.68629 13.0637 0 9.75 0C6.43629 0 3.75 2.68629 3.75 6C3.75 9.31371 6.43629 12 9.75 12Z" fill="url(#paint0_linear_179_599)"></path>
      <path fill-rule="evenodd" clip-rule="evenodd" d="M9.75 12C9.75 9.23851 7.5675 6.99976 4.875 6.99976C2.1825 6.99976 0 9.23851 0 12C0.0075 11.9888 9.75225 11.9925 9.75 12Z" fill="#F1F3F4"></path>
      <path d="M0.75 13.7145C2.62425 13.7145 2.62425 15.5895 4.49775 15.5895C6.37275 15.5895 6.37275 13.7145 8.247 13.7145C10.122 13.7145 10.122 15.5895 11.997 15.5895C13.872 15.5895 13.872 13.7145 15.7463 13.7145C17.622 13.7145 17.622 15.5895 19.4985 15.5895C21.3742 15.5895 21.3743 13.7145 23.25 13.7145M0.75 17.4645C2.62425 17.4645 2.62425 19.3395 4.49775 19.3395C6.37275 19.3395 6.37275 17.4645 8.247 17.4645C10.122 17.4645 10.122 19.3395 11.997 19.3395C13.872 19.3395 13.872 17.4645 15.7463 17.4645C17.622 17.4645 17.622 19.3395 19.4985 19.3395C21.3742 19.3395 21.3743 17.4645 23.25 17.4645M0.75 21.2145C2.62425 21.2145 2.62425 23.0895 4.49775 23.0895C6.37275 23.0895 6.37275 21.2145 8.247 21.2145C10.122 21.2145 10.122 23.0895 11.997 23.0895C13.872 23.0895 13.872 21.2145 15.7463 21.2145C17.622 21.2145 17.622 23.0895 19.4985 23.0895C21.3742 23.0895 21.3743 21.2145 23.25 21.2145" stroke="#CDD0D5" stroke-linecap="round" stroke-linejoin="round"></path>
    </g>
    <defs>
      <linearGradient id="paint0_linear_179_599" x1="3.75" y1="0" x2="1183.07" y2="1179.32" gradientUnits="userSpaceOnUse">
        <stop stop-color="#F1F3F4"></stop>
        <stop offset="1" stop-color="#DADCE0"></stop>
      </linearGradient>
      <clipPath id="clip0_179_599">
        <rect width="24" height="24" fill="white"></rect>
      </clipPath>
    </defs>
  </svg>