<svg xmlns="http://www.w3.org/2000/svg" width="25" height="24" viewBox="0 0 25 24" fill="none">
    <path d="M12 19.6345C11.5052 19.6345 11.0478 19.5108 10.628 19.2635C10.208 19.016 9.86917 18.6749 9.6115 18.2402C9.473 17.9967 9.47208 17.7516 9.60875 17.5047C9.74525 17.2581 9.95192 17.1347 10.2287 17.1347C10.3878 17.1347 10.5298 17.1821 10.6548 17.277C10.7797 17.3718 10.8897 17.4833 10.9845 17.6115C11.0935 17.773 11.2397 17.9006 11.423 17.9942C11.6063 18.0879 11.7987 18.1347 12 18.1347C12.3475 18.1347 12.6427 18.0132 12.8855 17.7702C13.1285 17.5272 13.25 17.232 13.25 16.8845C13.25 16.5371 13.1285 16.242 12.8855 15.999C12.6427 15.756 12.3475 15.6345 12 15.6345H3.5C3.28717 15.6345 3.109 15.5627 2.9655 15.4192C2.82183 15.2756 2.75 15.0973 2.75 14.8845C2.75 14.6718 2.82183 14.4936 2.9655 14.35C3.109 14.2065 3.28717 14.1347 3.5 14.1347H12C12.7628 14.1347 13.4118 14.4023 13.947 14.9375C14.4823 15.4728 14.75 16.1218 14.75 16.8845C14.75 17.6473 14.4823 18.2964 13.947 18.8317C13.4118 19.3669 12.7628 19.6345 12 19.6345ZM3.5 9.86523C3.28717 9.86523 3.109 9.79348 2.9655 9.64998C2.82183 9.50631 2.75 9.32815 2.75 9.11548C2.75 8.90265 2.82183 8.72439 2.9655 8.58073C3.109 8.43723 3.28717 8.36548 3.5 8.36548H16C16.4808 8.36548 16.8927 8.19398 17.2355 7.85098C17.5785 7.50798 17.75 7.09615 17.75 6.61548C17.75 6.13465 17.5785 5.72273 17.2355 5.37973C16.8927 5.03673 16.4808 4.86523 16 4.86523C15.6692 4.86523 15.3631 4.94865 15.0818 5.11548C14.8003 5.28215 14.5864 5.51415 14.4402 5.81148C14.3558 5.96015 14.2526 6.08965 14.1307 6.19998C14.0089 6.31015 13.8634 6.36523 13.6943 6.36523C13.4379 6.36523 13.2296 6.26915 13.0693 6.07698C12.9089 5.88465 12.8692 5.67565 12.95 5.44998C13.1833 4.81415 13.5785 4.30773 14.1355 3.93073C14.6927 3.55389 15.3142 3.36548 16 3.36548C16.9025 3.36548 17.6698 3.68148 18.302 4.31348C18.934 4.94548 19.25 5.71281 19.25 6.61548C19.25 7.51798 18.934 8.28523 18.302 8.91723C17.6698 9.54923 16.9025 9.86523 16 9.86523H3.5ZM20.3345 17.4885C20.0782 17.6 19.8333 17.5807 19.6 17.4307C19.3667 17.2807 19.25 17.0673 19.25 16.7905C19.25 16.6211 19.3052 16.4781 19.4155 16.3615C19.5257 16.2448 19.6551 16.1442 19.8038 16.0597C20.1013 15.9136 20.3333 15.6997 20.5 15.4182C20.6667 15.1369 20.75 14.8308 20.75 14.5C20.75 14.0191 20.5785 13.6073 20.2355 13.2645C19.8927 12.9215 19.4808 12.75 19 12.75H3.5C3.28717 12.75 3.109 12.6781 2.9655 12.5345C2.82183 12.391 2.75 12.2128 2.75 12C2.75 11.7871 2.82183 11.609 2.9655 11.4655C3.109 11.3218 3.28717 11.25 3.5 11.25H19C19.9025 11.25 20.6698 11.566 21.302 12.198C21.934 12.8301 22.25 13.5975 22.25 14.5C22.25 15.1551 22.0795 15.751 21.7385 16.2875C21.3975 16.824 20.9295 17.2243 20.3345 17.4885Z" fill="#BDC1C6"></path>
  </svg>