<svg width="29" height="31" viewBox="0 0 29 31" fill="none" xmlns="http://www.w3.org/2000/svg">
  <path d="M14.1129 25.82L3.10988 30.5722C2.73606 30.7397 2.37317 30.7733 2.02112 30.6728C1.66929 30.5726 1.3685 30.406 1.11874 30.1731C0.868984 29.9402 0.686225 29.6449 0.570541 29.2875C0.455069 28.9302 0.467885 28.5593 0.609054 28.1748L10.7111 1.81626C10.8303 1.4613 11.0334 1.19907 11.3205 1.0295C11.6077 0.859918 11.9224 0.775767 12.2648 0.777114C12.6072 0.778388 12.9346 0.865019 13.2468 1.03687C13.5592 1.20879 13.8008 1.4729 13.9717 1.82919L27.9357 28.2999C28.1293 28.6769 28.1961 29.0438 28.1362 29.4009C28.076 29.7577 27.9381 30.0518 27.7223 30.2831C27.5066 30.5145 27.2263 30.6777 26.8814 30.773C26.5362 30.868 26.1656 30.8301 25.7694 30.6593L14.1129 25.82Z" fill="currentColor"></path>
</svg>